# Blender v2.79 (sub 0) OBJ File: ''
# www.blender.org
mtllib ocean.mtl
o Plane
v -8.080538 0.402636 7.758540
v 7.718209 0.402636 7.758540
v -8.303612 0.088959 -7.952424
v 7.718209 0.402636 -8.040207
v -8.080538 0.402636 -0.140834
v -0.181164 0.402636 7.758540
v 7.718209 0.402636 -0.140834
v -0.181164 0.402636 -8.040207
v -0.087252 0.686491 -0.152997
v -8.343853 0.073783 3.810844
v 3.768522 0.402636 7.758540
v 7.718209 0.402636 -4.090520
v -4.130851 0.402636 -8.040207
v -8.261079 0.163869 -4.068422
v -4.130851 0.402636 7.758540
v 7.718209 0.402636 3.808853
v 3.768522 0.402636 -8.040207
v -0.075513 0.721973 -4.104204
v -0.286816 0.083300 3.822537
v -4.196481 0.189745 -0.094617
v 3.857630 0.686491 -0.190091
v 3.699414 0.153128 3.893237
v -4.130851 0.402636 3.808853
v -4.130851 0.402636 -4.090520
v 3.750066 0.637531 -3.902165
v -8.080538 0.402636 5.783696
v 5.743366 0.402636 7.758540
v 7.718209 0.402636 -6.065364
v -6.105694 0.402636 -8.040207
v -8.244507 0.160102 -2.188378
v -1.963864 0.590552 8.097896
v 7.718209 0.402636 1.834010
v 1.793679 0.402636 -8.040207
v -0.181164 0.402636 -6.065364
v -0.181164 0.402636 1.834010
v -6.105694 0.402636 -0.140834
v 1.793679 0.402636 -0.140834
v -8.080538 0.402636 1.834010
v 1.793679 0.402636 7.758540
v 7.718209 0.402636 -2.115677
v -2.156008 0.402636 -8.040207
v -8.205869 0.232000 -6.080263
v -6.113302 0.379147 7.850190
v 7.718209 0.402636 5.783696
v 5.743366 0.402636 -8.040207
v 0.046681 1.076792 -2.107470
v -0.181164 0.402636 5.783696
v -2.156008 0.402636 -0.140834
v 5.847044 0.684510 0.077432
v 3.768522 0.402636 1.834010
v 3.826674 0.651009 5.587581
v 1.793679 0.402636 3.808853
v 5.743366 0.402636 3.808853
v -4.130851 0.402636 1.834010
v -4.130851 0.402636 5.783696
v -6.105694 0.402636 3.808853
v -2.156008 0.402636 3.808853
v -4.130851 0.402636 -6.065364
v -4.130851 0.402636 -2.115677
v -6.105694 0.402636 -4.090520
v -2.156008 0.402636 -4.090520
v 3.768522 0.402636 -6.065364
v 3.768522 0.402636 -2.115677
v 1.772322 0.098206 -3.943584
v 5.743366 0.402636 -4.090520
v 5.743366 0.402636 -2.115677
v 1.646862 0.165857 -2.056290
v 1.793679 0.402636 -6.065364
v -2.156008 0.402636 -2.115677
v -6.105694 0.402636 -2.115677
v -6.204154 0.599156 -6.001591
v -2.156008 0.402636 5.783696
v -6.105694 0.402636 5.783696
v -6.105694 0.402636 1.834010
v 5.651376 0.710808 5.949594
v 1.793679 0.402636 5.783696
v 1.793679 0.402636 1.834010
v 5.651376 0.710808 1.999907
v -2.156008 0.402636 1.834010
v -2.082300 0.886559 -5.887017
v 5.743366 0.402636 -6.065364
v -8.080538 0.402636 6.771118
v 6.730788 0.402636 7.758540
v 7.718209 0.402636 -7.052786
v -7.093116 0.402636 -8.040207
v -8.300990 0.111596 -1.122414
v -1.168586 0.402636 7.758540
v 7.718209 0.402636 0.846588
v 0.806257 0.402636 -8.040207
v -0.181164 0.402636 -7.052786
v -0.181164 0.402636 0.846588
v -7.093116 0.402636 -0.140834
v 0.806257 0.402636 -0.140834
v -8.080538 0.402636 2.821431
v 2.781101 0.402636 7.758540
v 7.718209 0.402636 -3.103099
v -3.143430 0.402636 -8.040207
v -8.262369 0.167741 -5.025446
v -5.118273 0.402636 7.758540
v 7.718209 0.402636 4.796275
v 4.755944 0.402636 -8.040207
v -0.181164 0.402636 -3.103099
v -0.181164 0.402636 4.796275
v -3.204255 0.189745 -0.057523
v 4.755944 0.402636 -0.140834
v 3.768522 0.402636 0.846588
v 3.701051 0.188772 4.805013
v 0.907104 0.721973 3.758075
v 4.699718 0.224416 3.816135
v -4.130851 0.402636 0.846588
v -4.130851 0.402636 4.796275
v -6.955988 0.567063 3.852547
v -3.061256 0.651009 3.798211
v -4.130851 0.402636 -7.052786
v -4.130851 0.402636 -3.103099
v -7.141816 0.710808 -3.912763
v -3.028899 0.904877 -4.036125
v 3.768522 0.402636 -7.052786
v 3.768522 0.402636 -3.103099
v 0.806257 0.402636 -4.090520
v 4.779002 0.261699 -4.204273
v -8.080538 0.402636 4.796275
v 4.755944 0.402636 7.758540
v 7.718209 0.402636 -5.077942
v -5.118273 0.402636 -8.040207
v -8.080538 0.402636 -3.103099
v -3.251383 0.238210 7.953190
v 7.718209 0.402636 2.821431
v 2.781101 0.402636 -8.040207
v -0.181164 0.402636 -5.077942
v -0.244121 0.154263 2.980452
v -5.118273 0.402636 -0.140834
v 2.781101 0.402636 -0.140834
v -8.242175 0.184356 0.836425
v 0.806257 0.402636 7.758540
v 7.718209 0.402636 -1.128255
v -1.168586 0.402636 -8.040207
v -8.236377 0.185475 -7.003471
v -7.093116 0.402636 7.758540
v 7.718209 0.402636 6.771118
v 6.730788 0.402636 -8.040207
v -0.181164 0.402636 -1.128255
v -0.181164 0.402636 6.771118
v -1.168586 0.402636 -0.140834
v 6.730788 0.402636 -0.140834
v 3.521633 0.007733 2.681641
v 3.768522 0.402636 6.771118
v 2.781101 0.402636 3.808853
v 6.730788 0.402636 3.808853
v -4.130851 0.402636 2.821431
v -4.130851 0.402636 6.771118
v -5.118273 0.402636 3.808853
v -1.257694 0.197643 3.858110
v -4.020880 0.761380 -5.055217
v -4.130851 0.402636 -1.128255
v -5.118273 0.402636 -4.090520
v -1.168586 0.402636 -4.090520
v 3.768522 0.402636 -5.077942
v 3.657704 0.520548 -1.125650
v 2.699276 0.567063 -3.954422
v 6.730788 0.402636 -4.090520
v 5.743366 0.402636 -3.103099
v 5.700755 0.144252 -1.331566
v 4.755944 0.402636 -2.115677
v 6.730788 0.402636 -2.115677
v 1.715795 0.165857 -3.014648
v 1.882787 0.686491 -1.177513
v 0.806257 0.402636 -2.115677
v 2.781101 0.402636 -2.115677
v 1.793679 0.402636 -7.052786
v 1.793679 0.402636 -5.077942
v 0.806257 0.402636 -6.065364
v 2.831816 0.214720 -6.218265
v -2.078639 0.651009 -3.150836
v -2.156008 0.402636 -1.128255
v -2.986561 0.934864 -2.286860
v -1.098152 0.615528 -2.124799
v -6.105694 0.402636 -3.103099
v -6.007617 0.055943 -1.316373
v -7.093116 0.402636 -2.115677
v -5.118273 0.402636 -2.115677
v -6.105694 0.402636 -7.052786
v -6.179496 0.638460 -4.970851
v -7.093116 0.402636 -6.065364
v -5.118273 0.402636 -6.065364
v -2.156008 0.402636 4.796275
v -2.156008 0.402636 6.771118
v -3.273264 0.238210 5.799589
v -1.168586 0.402636 5.783696
v -5.990761 0.543573 4.812446
v -6.105694 0.402636 6.771118
v -7.093116 0.402636 5.783696
v -5.118273 0.402636 5.783696
v -6.025879 0.171508 0.725130
v -6.105694 0.402636 2.821431
v -7.093116 0.402636 1.834010
v -5.038458 0.171508 1.712551
v 5.844573 0.723433 4.783167
v 5.743366 0.402636 6.771118
v 4.755944 0.402636 5.783696
v 6.730788 0.402636 5.783696
v 1.875852 0.651009 4.785632
v 1.793679 0.402636 6.771118
v 0.881496 0.615528 5.811668
v 2.781101 0.402636 5.783696
v 1.875852 0.651009 0.835945
v 1.904134 0.721973 2.844842
v 0.806257 0.402636 1.834010
v 2.914041 0.615277 1.909281
v 5.743366 0.402636 0.846588
v 5.743366 0.402636 2.821431
v 4.755944 0.402636 1.834010
v 6.730788 0.402636 1.834010
v -2.083443 0.651009 0.761756
v -2.156008 0.402636 2.821431
v -3.143430 0.402636 1.834010
v -1.074674 0.686491 1.821847
v -2.156008 0.402636 -7.052786
v -2.156008 0.402636 -5.077942
v -3.143430 0.402636 -6.065364
v -1.168586 0.402636 -6.065364
v 5.743366 0.402636 -7.052786
v 5.743366 0.402636 -5.077942
v 4.830814 0.708000 -5.826600
v 6.730788 0.402636 -6.065364
v 6.730788 0.402636 -5.077942
v 4.755944 0.402636 -5.077942
v 4.755944 0.402636 -7.052786
v -1.067739 0.721973 -5.128720
v -2.896420 0.943846 -5.153050
v -3.143430 0.402636 -7.052786
v -1.168586 0.402636 2.821431
v -3.143430 0.402636 2.821431
v -3.265624 0.047818 0.824697
v 6.730788 0.402636 2.821431
v 4.755944 0.402636 2.821431
v 4.706801 0.677764 0.996998
v 2.781101 0.402636 2.821431
v 0.769803 0.615527 2.775215
v 0.806257 0.402636 0.846588
v 2.781101 0.402636 6.771118
v 0.806257 0.402636 6.771118
v 0.806257 0.402636 4.796275
v 6.730788 0.402636 6.771118
v 4.755944 0.402636 6.771118
v 4.755944 0.402636 4.796275
v -5.118950 0.132986 2.654033
v -7.093116 0.402636 2.821431
v -6.924076 0.620917 0.827663
v -5.118273 0.402636 6.771118
v -7.093116 0.402636 6.771118
v -7.093116 0.402636 4.796275
v -1.168586 0.402636 6.771118
v -2.957952 0.637531 6.748415
v -3.143430 0.402636 4.796275
v -5.118273 0.402636 -5.077942
v -7.093116 0.402636 -5.077942
v -7.093116 0.402636 -7.052786
v -5.118273 0.402636 -1.128255
v -7.093116 0.402636 -1.128255
v -7.093116 0.402636 -3.103099
v -1.046392 0.757455 -1.106365
v -3.143430 0.402636 -1.128255
v -3.143430 0.402636 -3.103099
v 2.911287 0.614042 -4.917476
v 0.806257 0.402636 -5.077942
v 0.806257 0.402636 -7.052786
v 2.781101 0.402636 -1.128255
v 0.806257 0.402636 -1.128255
v 0.806257 0.402636 -3.103099
v 6.730788 0.402636 -1.128255
v 4.978307 0.661021 -0.936030
v 4.763996 0.567063 -2.972543
v 6.711181 0.614042 -2.933394
v 2.781101 0.402636 -3.103099
v 2.781101 0.402636 -7.052786
v -1.168586 0.402636 -3.103099
v -5.192074 0.638460 -2.996007
v -5.010624 0.759077 -7.104445
v -1.081609 0.651009 4.822726
v -5.118273 0.402636 4.796275
v -5.118273 0.402636 0.846588
v 6.730788 0.402636 4.796275
v 2.781101 0.402636 4.796275
v 2.781101 0.402636 0.846588
v 6.730788 0.402636 0.846588
v -1.168586 0.402636 0.846588
v -1.168586 0.402636 -7.052786
v 6.730788 0.402636 -7.052786
vn 0.0000 1.0000 0.0000
vn -0.1339 0.9819 0.1339
vn -0.1320 0.9824 0.1320
vn 0.2453 0.9693 -0.0184
vn 0.1128 0.9872 -0.1128
vn 0.1632 0.9081 -0.3857
vn 0.1892 0.9635 -0.1892
vn 0.1081 0.9882 -0.1081
vn -0.1491 0.9775 0.1491
vn -0.0396 0.9706 0.2373
vn 0.0968 0.9906 -0.0968
vn 0.0108 0.9906 -0.1362
vn 0.2837 0.9586 -0.0260
vn 0.2801 0.9596 -0.0256
vn -0.0223 0.9637 -0.2660
vn -0.0629 0.9960 -0.0629
vn 0.0122 0.9850 -0.1723
vn 0.1357 0.9814 0.1357
vn 0.2502 0.9353 0.2502
vn -0.0506 0.9662 0.2530
vn 0.1625 0.9732 0.1625
vn 0.1780 0.9678 0.1780
vn -0.2318 0.9726 -0.0161
vn -0.1655 0.9722 -0.1655
vn 0.1283 0.9834 0.1283
vn 0.0366 0.9775 -0.2076
vn 0.0122 0.9999 0.0122
vn 0.2305 0.9728 -0.0245
vn -0.2566 0.9665 0.0086
vn -0.2241 0.9484 -0.2241
vn -0.1740 0.9693 0.1740
vn 0.0355 0.9987 0.0355
vn 0.1123 0.9873 0.1123
vn -0.1101 0.9878 0.1101
vn -0.1196 0.9856 -0.1196
vn -0.0398 0.9644 -0.2614
vn 0.3737 0.8489 0.3737
vn -0.0033 1.0000 0.0033
vn -0.3462 0.9366 -0.0537
vn 0.0370 0.9986 -0.0370
vn 0.1700 0.9707 -0.1700
vn 0.1779 0.9678 0.1779
vn -0.1640 0.9727 0.1640
vn 0.1765 0.9833 -0.0455
vn -0.0762 0.9942 0.0762
vn -0.1311 0.9827 -0.1311
vn 0.1400 0.9802 -0.1400
vn 0.0920 0.9915 0.0920
vn -0.1469 0.9782 0.1469
vn -0.0973 0.9082 -0.4071
vn -0.2881 0.9462 0.1472
vn 0.5420 0.8389 0.0497
vn -0.2077 0.9559 -0.2077
vn 0.1048 0.9890 0.1048
vn 0.1759 0.9721 0.1551
vn 0.1297 0.9830 -0.1297
vn 0.1878 0.9814 -0.0386
vn 0.1828 0.9660 -0.1828
vn -0.2688 0.9623 -0.0428
vn 0.1580 0.9747 0.1580
vn -0.1832 0.9659 0.1832
vn -0.2049 0.9785 0.0258
vn -0.0868 0.9924 0.0868
vn 0.0043 1.0000 0.0043
vn -0.1514 0.9768 0.1514
vn -0.0170 0.9997 -0.0170
vn 0.0547 0.9970 -0.0547
vn 0.1685 0.9712 0.1685
vn 0.3580 0.9293 -0.0904
vn -0.2240 0.9746 0.0059
vn -0.4454 0.8953 0.0057
vn 0.0979 0.9894 0.1068
vn 0.1467 0.9782 0.1467
vn -0.1184 0.9859 0.1184
vn -0.1041 0.9891 0.1041
vn -0.2810 0.9597 0.0007
vn -0.1014 0.9897 -0.1014
vn -0.0176 0.9997 0.0176
vn 0.1160 0.9865 0.1160
vn -0.1410 0.9842 -0.1069
vn 0.0409 0.9660 -0.2552
vn -0.3006 0.9535 -0.0214
vn 0.2407 0.9702 0.0294
vn 0.1240 0.9845 -0.1240
vn -0.1239 0.9845 -0.1239
vn -0.2040 0.9767 0.0667
vn 0.0867 0.9924 -0.0867
vn -0.1860 0.9825 0.0007
vn -0.1861 0.9825 -0.0007
vn 0.2329 0.9723 0.0215
vn -0.0113 0.9999 0.0113
vn 0.0114 0.9999 0.0114
vn -0.2017 0.9769 -0.0701
vn -0.0677 0.9954 0.0677
vn 0.0879 0.9922 -0.0879
vn -0.0347 0.9799 -0.1964
vn -0.0483 0.9838 0.1727
vn -0.0624 0.9948 0.0806
vn 0.0877 0.9923 0.0877
vn -0.0771 0.9940 0.0771
vn 0.1957 0.9804 -0.0215
vn 0.1197 0.9856 0.1197
vn -0.1689 0.9710 0.1689
vn -0.1745 0.9843 0.0261
vn -0.3143 0.9387 -0.1416
vn 0.0358 0.9987 -0.0358
vn -0.2221 0.9742 -0.0408
vn -0.1697 0.9853 -0.0213
vn -0.1003 0.9899 -0.1003
vn -0.1972 0.9603 0.1972
vn -0.1634 0.9729 -0.1634
vn 0.1076 0.9884 0.1076
vn -0.2210 0.9751 0.0170
vn -0.1306 0.9828 -0.1306
vn 0.1499 0.9773 -0.1499
vn -0.2556 0.9642 0.0707
vn -0.1158 0.9865 0.1158
vn -0.2526 0.9656 -0.0618
vn -0.1662 0.9720 0.1662
vn 0.0371 0.9986 0.0371
vn -0.2197 0.9505 0.2197
vn -0.0037 0.9802 0.1981
vn -0.0995 0.9901 0.0995
vn -0.2330 0.9441 0.2330
vn -0.2534 0.9336 -0.2534
vn 0.1562 0.9753 -0.1562
vn -0.0101 0.9851 -0.1716
vn -0.3214 0.9391 0.1216
vn 0.0689 0.9944 -0.0799
vn 0.1672 0.9716 -0.1672
vn 0.1420 0.9796 0.1420
vn 0.0209 0.9623 -0.2711
vn 0.1436 0.9792 0.1436
vn -0.2025 0.9772 -0.0633
vn 0.3400 0.8768 0.3400
vn 0.1485 0.9777 -0.1485
vn 0.1649 0.9724 0.1649
vn 0.3375 0.8787 -0.3375
vn 0.2605 0.9654 0.0092
vn -0.1396 0.9803 0.1396
vn 0.0102 0.9753 -0.2205
vn -0.0461 0.9846 -0.1684
vn 0.0586 0.9968 0.0540
vn 0.1157 0.9858 -0.1221
vn 0.1009 0.9943 -0.0347
vn -0.0881 0.9922 0.0881
vn 0.0888 0.9921 0.0888
vn -0.0985 0.9902 -0.0985
vn -0.1168 0.9863 0.1168
vn 0.1143 0.9868 0.1143
vn -0.3309 0.9420 0.0559
vn -0.2109 0.9775 -0.0075
vn 0.0994 0.9901 0.0994
vn -0.1049 0.9889 0.1049
vn 0.1319 0.9824 -0.1319
vn 0.0177 0.9997 0.0177
vn -0.1928 0.9056 -0.3778
vn -0.1158 0.9865 -0.1158
vn -0.1292 0.9832 0.1292
vn -0.1703 0.9705 -0.1703
vn -0.0693 0.9952 0.0693
vn 0.1797 0.9672 0.1797
vn -0.0128 0.9742 -0.2251
vn -0.1203 0.9854 0.1203
vn 0.1311 0.9827 0.1311
vn 0.0747 0.9944 -0.0747
vn 0.0760 0.9942 0.0760
vn -0.1282 0.9834 0.1282
vn 0.1675 0.9715 -0.1675
vn 0.3069 0.9512 0.0331
vn -0.0408 0.9674 -0.2498
vn 0.0169 0.9997 0.0169
vn 0.1096 0.9879 -0.1096
vn 0.1658 0.9721 0.1658
vn 0.1355 0.9815 -0.1355
vn 0.1342 0.9818 -0.1342
vn -0.0171 0.9997 -0.0171
vn 0.2210 0.9499 -0.2210
usemtl Material.003
s off
f 289//1 84//1 4//1 141//1
f 288//1 90//1 8//1 137//1
f 287//2 91//2 9//2 144//2
f 286//1 88//1 7//1 145//1
f 285//3 106//3 21//3 133//3
f 284//4 107//4 22//4 148//4
f 283//1 100//1 16//1 149//1
f 282//5 110//5 20//5 132//5
f 281//1 111//1 23//1 152//1
f 280//6 103//6 19//6 153//6
f 279//7 114//7 13//7 125//7
f 278//8 115//8 24//8 156//8
f 277//9 102//9 18//9 157//9
f 276//1 118//1 17//1 129//1
f 275//10 119//10 25//10 160//10
f 274//11 96//11 12//11 161//11
f 273//12 162//12 65//12 121//12
f 272//13 163//13 66//13 164//13
f 271//1 136//1 40//1 165//1
f 270//14 166//14 64//14 120//14
f 269//15 167//15 67//15 168//15
f 268//16 159//16 63//16 169//16
f 267//1 170//1 33//1 89//1
f 266//1 171//1 68//1 172//1
f 265//17 158//17 62//17 173//17
f 264//18 174//18 61//18 117//18
f 263//19 175//19 69//19 176//19
f 262//20 142//20 46//20 177//20
f 261//21 178//21 60//21 116//21
f 260//22 179//22 70//22 180//22
f 259//1 155//1 59//1 181//1
f 258//1 182//1 29//1 85//1
f 257//23 183//23 71//23 184//23
f 256//24 154//24 58//24 185//24
f 255//25 186//25 57//25 113//25
f 254//26 187//26 72//26 188//26
f 253//1 143//1 47//1 189//1
f 252//27 190//27 56//27 112//27
f 251//1 191//1 73//1 192//1
f 250//1 151//1 55//1 193//1
f 249//28 194//28 36//28 92//28
f 248//1 195//1 74//1 196//1
f 247//29 150//29 54//29 197//29
f 246//30 198//30 53//30 109//30
f 245//31 199//31 75//31 200//31
f 244//1 140//1 44//1 201//1
f 243//32 202//32 52//32 108//32
f 242//33 203//33 76//33 204//33
f 241//34 147//34 51//34 205//34
f 240//35 206//35 37//35 93//35
f 239//36 207//36 77//36 208//36
f 238//37 146//37 50//37 209//37
f 237//38 210//38 49//38 105//38
f 236//31 211//31 78//31 212//31
f 235//1 128//1 32//1 213//1
f 234//39 214//39 48//39 104//39
f 233//1 215//1 79//1 216//1
f 232//19 131//19 35//19 217//19
f 231//1 218//1 41//1 97//1
f 230//40 219//40 80//40 220//40
f 229//41 130//41 34//41 221//41
f 228//1 222//1 45//1 101//1
f 227//42 223//42 81//42 224//42
f 226//1 124//1 28//1 225//1
f 223//1 226//1 225//1 81//1
f 65//1 161//1 226//1 223//1
f 161//1 12//1 124//1 226//1
f 158//43 227//43 224//43 62//43
f 25//44 121//44 227//44 158//44
f 121//45 65//45 223//45 227//45
f 118//1 228//1 101//1 17//1
f 62//46 224//46 228//46 118//46
f 224//47 81//47 222//47 228//47
f 219//48 229//48 221//48 80//48
f 61//49 157//49 229//49 219//49
f 157//1 18//1 130//1 229//1
f 154//50 230//50 220//50 58//50
f 24//51 117//51 230//51 154//51
f 117//52 61//52 219//52 230//52
f 114//1 231//1 97//1 13//1
f 58//1 220//1 231//1 114//1
f 220//53 80//53 218//53 231//53
f 215//2 232//2 217//2 79//2
f 57//54 153//54 232//54 215//54
f 153//55 19//55 131//55 232//55
f 150//1 233//1 216//1 54//1
f 23//35 113//35 233//35 150//35
f 113//56 57//56 215//56 233//56
f 110//57 234//57 104//57 20//57
f 54//58 216//58 234//58 110//58
f 216//59 79//59 214//59 234//59
f 211//60 235//60 213//60 78//60
f 53//1 149//1 235//1 211//1
f 149//1 16//1 128//1 235//1
f 146//61 236//61 212//61 50//61
f 22//62 109//62 236//62 146//62
f 109//63 53//63 211//63 236//63
f 106//64 237//64 105//64 21//64
f 50//65 212//65 237//65 106//65
f 212//66 78//66 210//66 237//66
f 207//67 238//67 209//67 77//67
f 52//68 148//68 238//68 207//68
f 148//69 22//69 146//69 238//69
f 131//70 239//70 208//70 35//70
f 19//71 108//71 239//71 131//71
f 108//72 52//72 207//72 239//72
f 91//73 240//73 93//73 9//73
f 35//1 208//1 240//1 91//1
f 208//74 77//74 206//74 240//74
f 203//1 241//1 205//1 76//1
f 39//1 95//1 241//1 203//1
f 95//1 11//1 147//1 241//1
f 143//75 242//75 204//75 47//75
f 6//1 135//1 242//1 143//1
f 135//1 39//1 203//1 242//1
f 103//76 243//76 108//76 19//76
f 47//77 204//77 243//77 103//77
f 204//78 76//78 202//78 243//78
f 199//60 244//60 201//60 75//60
f 27//1 83//1 244//1 199//1
f 83//1 2//1 140//1 244//1
f 147//79 245//79 200//79 51//79
f 11//1 123//1 245//1 147//1
f 123//1 27//1 199//1 245//1
f 107//80 246//80 109//80 22//80
f 51//81 200//81 246//81 107//81
f 200//82 75//82 198//82 246//82
f 195//83 247//83 197//83 74//83
f 56//84 152//84 247//84 195//84
f 152//85 23//85 150//85 247//85
f 94//1 248//1 196//1 38//1
f 10//86 112//86 248//86 94//86
f 112//87 56//87 195//87 248//87
f 134//88 249//88 92//88 5//88
f 38//89 196//89 249//89 134//89
f 196//90 74//90 194//90 249//90
f 191//1 250//1 193//1 73//1
f 43//91 99//91 250//91 191//91
f 99//1 15//1 151//1 250//1
f 82//1 251//1 192//1 26//1
f 1//1 139//1 251//1 82//1
f 139//92 43//92 191//92 251//92
f 122//93 252//93 112//93 10//93
f 26//1 192//1 252//1 122//1
f 192//94 73//94 190//94 252//94
f 187//1 253//1 189//1 72//1
f 31//95 87//95 253//95 187//95
f 87//1 6//1 143//1 253//1
f 151//96 254//96 188//96 55//96
f 15//97 127//97 254//97 151//97
f 127//98 31//98 187//98 254//98
f 111//74 255//74 113//74 23//74
f 55//99 188//99 255//99 111//99
f 188//100 72//100 186//100 255//100
f 183//101 256//101 185//101 71//101
f 60//102 156//102 256//102 183//102
f 156//103 24//103 154//103 256//103
f 98//104 257//104 184//104 42//104
f 14//105 116//105 257//105 98//105
f 116//106 60//106 183//106 257//106
f 138//107 258//107 85//107 3//107
f 42//108 184//108 258//108 138//108
f 184//109 71//109 182//109 258//109
f 179//110 259//110 181//110 70//110
f 36//111 132//111 259//111 179//111
f 132//112 20//112 155//112 259//112
f 86//113 260//113 180//113 30//113
f 5//114 92//114 260//114 86//114
f 92//115 36//115 179//115 260//115
f 126//116 261//116 116//116 14//116
f 30//117 180//117 261//117 126//117
f 180//1 70//1 178//1 261//1
f 175//118 262//118 177//118 69//118
f 48//119 144//119 262//119 175//119
f 144//120 9//120 142//120 262//120
f 155//121 263//121 176//121 59//121
f 20//122 104//122 263//122 155//122
f 104//123 48//123 175//123 263//123
f 115//124 264//124 117//124 24//124
f 59//125 176//125 264//125 115//125
f 176//126 69//126 174//126 264//126
f 171//127 265//127 173//127 68//127
f 64//128 160//128 265//128 171//128
f 160//129 25//129 158//129 265//129
f 130//1 266//1 172//1 34//1
f 18//130 120//130 266//130 130//130
f 120//131 64//131 171//131 266//131
f 90//1 267//1 89//1 8//1
f 34//1 172//1 267//1 90//1
f 172//1 68//1 170//1 267//1
f 167//132 268//132 169//132 67//132
f 37//133 133//133 268//133 167//133
f 133//134 21//134 159//134 268//134
f 142//135 269//135 168//135 46//135
f 9//136 93//136 269//136 142//136
f 93//3 37//3 167//3 269//3
f 102//137 270//137 120//137 18//137
f 46//138 168//138 270//138 102//138
f 168//139 67//139 166//139 270//139
f 163//140 271//140 165//140 66//140
f 49//141 145//141 271//141 163//141
f 145//1 7//1 136//1 271//1
f 159//142 272//142 164//142 63//142
f 21//143 105//143 272//143 159//143
f 105//144 49//144 163//144 272//144
f 119//145 273//145 121//145 25//145
f 63//146 164//146 273//146 119//146
f 164//147 66//147 162//147 273//147
f 162//148 274//148 161//148 65//148
f 66//149 165//149 274//149 162//149
f 165//150 40//150 96//150 274//150
f 166//151 275//151 160//151 64//151
f 67//152 169//152 275//152 166//152
f 169//1 63//1 119//1 275//1
f 170//1 276//1 129//1 33//1
f 68//153 173//153 276//153 170//153
f 173//154 62//154 118//154 276//154
f 174//155 277//155 157//155 61//155
f 69//156 177//156 277//156 174//156
f 177//157 46//157 102//157 277//157
f 178//158 278//158 156//158 60//158
f 70//159 181//159 278//159 178//159
f 181//102 59//102 115//102 278//102
f 182//160 279//160 125//160 29//160
f 71//161 185//161 279//161 182//161
f 185//162 58//162 114//162 279//162
f 186//163 280//163 153//163 57//163
f 72//164 189//164 280//164 186//164
f 189//165 47//165 103//165 280//165
f 190//166 281//166 152//166 56//166
f 73//167 193//167 281//167 190//167
f 193//1 55//1 111//1 281//1
f 194//168 282//168 132//168 36//168
f 74//1 197//1 282//1 194//1
f 197//168 54//168 110//168 282//168
f 198//169 283//169 149//169 53//169
f 75//170 201//170 283//170 198//170
f 201//1 44//1 100//1 283//1
f 202//56 284//56 148//56 52//56
f 76//25 205//25 284//25 202//25
f 205//171 51//171 107//171 284//171
f 206//56 285//56 133//56 37//56
f 77//172 209//172 285//172 206//172
f 209//173 50//173 106//173 285//173
f 210//174 286//174 145//174 49//174
f 78//175 213//175 286//175 210//175
f 213//1 32//1 88//1 286//1
f 214//176 287//176 144//176 48//176
f 79//177 217//177 287//177 214//177
f 217//136 35//136 91//136 287//136
f 218//1 288//1 137//1 41//1
f 80//178 221//178 288//178 218//178
f 221//1 34//1 90//1 288//1
f 222//1 289//1 141//1 45//1
f 81//1 225//1 289//1 222//1
f 225//1 28//1 84//1 289//1
